<mxfile host="app.diagrams.net" modified="2022-04-12T09:20:15.816Z" agent="5.0 (Windows)" etag="W7G4WWoGBCy1QFSl573m" version="17.4.3" type="github">
  <diagram id="C5RBs43oDa-KdzZeNtuy" name="JMM、8大原子操作">
    <mxGraphModel dx="1422" dy="752" grid="1" gridSize="10" guides="1" tooltips="1" connect="1" arrows="1" fold="1" page="1" pageScale="1" pageWidth="827" pageHeight="1169" math="0" shadow="0">
      <root>
        <mxCell id="WIyWlLk6GJQsqaUBKTNV-0" />
        <mxCell id="WIyWlLk6GJQsqaUBKTNV-1" parent="WIyWlLk6GJQsqaUBKTNV-0" />
        <mxCell id="mp_lwEm3eIpkVCGBcad2-33" value="总线嗅探" style="edgeStyle=orthogonalEdgeStyle;rounded=0;orthogonalLoop=1;jettySize=auto;html=1;exitX=0.5;exitY=1;exitDx=0;exitDy=0;entryX=0.314;entryY=0.025;entryDx=0;entryDy=0;entryPerimeter=0;" edge="1" parent="WIyWlLk6GJQsqaUBKTNV-1" source="mp_lwEm3eIpkVCGBcad2-1" target="mp_lwEm3eIpkVCGBcad2-6">
          <mxGeometry relative="1" as="geometry" />
        </mxCell>
        <mxCell id="mp_lwEm3eIpkVCGBcad2-1" value="CPU" style="swimlane;" vertex="1" parent="WIyWlLk6GJQsqaUBKTNV-1">
          <mxGeometry x="200" y="144" width="200" height="200" as="geometry" />
        </mxCell>
        <mxCell id="mp_lwEm3eIpkVCGBcad2-2" value="&lt;div&gt;Thread A(执行引擎)&lt;/div&gt;&lt;div&gt;while(!initFlag)&lt;br&gt;&lt;/div&gt;" style="rounded=0;whiteSpace=wrap;html=1;" vertex="1" parent="mp_lwEm3eIpkVCGBcad2-1">
          <mxGeometry x="30" y="40" width="140" height="40" as="geometry" />
        </mxCell>
        <mxCell id="mp_lwEm3eIpkVCGBcad2-32" value="3.use" style="edgeStyle=orthogonalEdgeStyle;rounded=0;orthogonalLoop=1;jettySize=auto;html=1;exitX=0.5;exitY=0;exitDx=0;exitDy=0;entryX=0.5;entryY=1;entryDx=0;entryDy=0;" edge="1" parent="mp_lwEm3eIpkVCGBcad2-1" source="mp_lwEm3eIpkVCGBcad2-3" target="mp_lwEm3eIpkVCGBcad2-2">
          <mxGeometry relative="1" as="geometry" />
        </mxCell>
        <mxCell id="mp_lwEm3eIpkVCGBcad2-3" value="&lt;div&gt;工作内存&lt;/div&gt;&lt;div&gt;&lt;br&gt;&lt;/div&gt;&lt;div&gt;&lt;br&gt;&lt;/div&gt;" style="rounded=0;whiteSpace=wrap;html=1;" vertex="1" parent="mp_lwEm3eIpkVCGBcad2-1">
          <mxGeometry x="30" y="108" width="140" height="70" as="geometry" />
        </mxCell>
        <mxCell id="mp_lwEm3eIpkVCGBcad2-4" value="initFlag = false" style="rounded=0;whiteSpace=wrap;html=1;" vertex="1" parent="mp_lwEm3eIpkVCGBcad2-1">
          <mxGeometry x="40" y="138" width="120" height="30" as="geometry" />
        </mxCell>
        <mxCell id="mp_lwEm3eIpkVCGBcad2-5" value="CPU 核0" style="rounded=0;whiteSpace=wrap;html=1;" vertex="1" parent="WIyWlLk6GJQsqaUBKTNV-1">
          <mxGeometry x="200" y="94" width="200" height="40" as="geometry" />
        </mxCell>
        <mxCell id="mp_lwEm3eIpkVCGBcad2-6" value="总线bus访问主内存" style="rounded=0;whiteSpace=wrap;html=1;" vertex="1" parent="WIyWlLk6GJQsqaUBKTNV-1">
          <mxGeometry x="15" y="380" width="910" height="40" as="geometry" />
        </mxCell>
        <mxCell id="mp_lwEm3eIpkVCGBcad2-28" value="1.read" style="edgeStyle=orthogonalEdgeStyle;rounded=0;orthogonalLoop=1;jettySize=auto;html=1;exitX=0;exitY=0.5;exitDx=0;exitDy=0;entryX=0.5;entryY=1;entryDx=0;entryDy=0;" edge="1" parent="WIyWlLk6GJQsqaUBKTNV-1" source="mp_lwEm3eIpkVCGBcad2-9" target="mp_lwEm3eIpkVCGBcad2-12">
          <mxGeometry x="0.1111" relative="1" as="geometry">
            <mxPoint as="offset" />
          </mxGeometry>
        </mxCell>
        <mxCell id="mp_lwEm3eIpkVCGBcad2-37" value="1.read" style="edgeStyle=orthogonalEdgeStyle;rounded=0;orthogonalLoop=1;jettySize=auto;html=1;exitX=1;exitY=0.5;exitDx=0;exitDy=0;" edge="1" parent="WIyWlLk6GJQsqaUBKTNV-1" source="mp_lwEm3eIpkVCGBcad2-9" target="mp_lwEm3eIpkVCGBcad2-26">
          <mxGeometry relative="1" as="geometry" />
        </mxCell>
        <mxCell id="mp_lwEm3eIpkVCGBcad2-9" value="initFlag = false" style="rounded=0;whiteSpace=wrap;html=1;" vertex="1" parent="WIyWlLk6GJQsqaUBKTNV-1">
          <mxGeometry x="410" y="485" width="120" height="30" as="geometry" />
        </mxCell>
        <mxCell id="mp_lwEm3eIpkVCGBcad2-46" value="" style="edgeStyle=orthogonalEdgeStyle;rounded=0;orthogonalLoop=1;jettySize=auto;html=1;" edge="1" parent="WIyWlLk6GJQsqaUBKTNV-1" source="mp_lwEm3eIpkVCGBcad2-10" target="mp_lwEm3eIpkVCGBcad2-27">
          <mxGeometry relative="1" as="geometry" />
        </mxCell>
        <mxCell id="mp_lwEm3eIpkVCGBcad2-10" value="主内存" style="swimlane;" vertex="1" parent="WIyWlLk6GJQsqaUBKTNV-1">
          <mxGeometry x="265" y="450" width="410" height="80" as="geometry" />
        </mxCell>
        <mxCell id="mp_lwEm3eIpkVCGBcad2-30" value="2.load" style="edgeStyle=orthogonalEdgeStyle;rounded=0;orthogonalLoop=1;jettySize=auto;html=1;exitX=0.5;exitY=0;exitDx=0;exitDy=0;entryX=0;entryY=0.5;entryDx=0;entryDy=0;" edge="1" parent="WIyWlLk6GJQsqaUBKTNV-1" source="mp_lwEm3eIpkVCGBcad2-12" target="mp_lwEm3eIpkVCGBcad2-4">
          <mxGeometry relative="1" as="geometry" />
        </mxCell>
        <mxCell id="mp_lwEm3eIpkVCGBcad2-12" value="initFlag = false" style="rounded=0;whiteSpace=wrap;html=1;" vertex="1" parent="WIyWlLk6GJQsqaUBKTNV-1">
          <mxGeometry x="57" y="385" width="120" height="30" as="geometry" />
        </mxCell>
        <mxCell id="mp_lwEm3eIpkVCGBcad2-36" value="总线嗅探" style="edgeStyle=orthogonalEdgeStyle;rounded=0;orthogonalLoop=1;jettySize=auto;html=1;exitX=0.5;exitY=1;exitDx=0;exitDy=0;entryX=0.689;entryY=-0.025;entryDx=0;entryDy=0;entryPerimeter=0;" edge="1" parent="WIyWlLk6GJQsqaUBKTNV-1" source="mp_lwEm3eIpkVCGBcad2-21" target="mp_lwEm3eIpkVCGBcad2-6">
          <mxGeometry relative="1" as="geometry" />
        </mxCell>
        <mxCell id="mp_lwEm3eIpkVCGBcad2-21" value="CPU" style="swimlane;" vertex="1" parent="WIyWlLk6GJQsqaUBKTNV-1">
          <mxGeometry x="540" y="144" width="200" height="200" as="geometry" />
        </mxCell>
        <mxCell id="mp_lwEm3eIpkVCGBcad2-40" value="4.assign" style="edgeStyle=orthogonalEdgeStyle;rounded=0;orthogonalLoop=1;jettySize=auto;html=1;exitX=1;exitY=0.5;exitDx=0;exitDy=0;entryX=1;entryY=0.5;entryDx=0;entryDy=0;" edge="1" parent="mp_lwEm3eIpkVCGBcad2-21" source="mp_lwEm3eIpkVCGBcad2-22" target="mp_lwEm3eIpkVCGBcad2-24">
          <mxGeometry relative="1" as="geometry">
            <Array as="points">
              <mxPoint x="230" y="60" />
              <mxPoint x="230" y="153" />
            </Array>
          </mxGeometry>
        </mxCell>
        <mxCell id="mp_lwEm3eIpkVCGBcad2-22" value="&lt;div&gt;Thread B(执行引擎)&lt;/div&gt;&lt;div&gt;initFlag= false -&amp;gt; true&lt;br&gt;&lt;/div&gt;" style="rounded=0;whiteSpace=wrap;html=1;" vertex="1" parent="mp_lwEm3eIpkVCGBcad2-21">
          <mxGeometry x="30" y="40" width="140" height="40" as="geometry" />
        </mxCell>
        <mxCell id="mp_lwEm3eIpkVCGBcad2-39" value="3.use" style="edgeStyle=orthogonalEdgeStyle;rounded=0;orthogonalLoop=1;jettySize=auto;html=1;exitX=0.5;exitY=0;exitDx=0;exitDy=0;entryX=0.5;entryY=1;entryDx=0;entryDy=0;" edge="1" parent="mp_lwEm3eIpkVCGBcad2-21" source="mp_lwEm3eIpkVCGBcad2-23" target="mp_lwEm3eIpkVCGBcad2-22">
          <mxGeometry relative="1" as="geometry" />
        </mxCell>
        <mxCell id="mp_lwEm3eIpkVCGBcad2-23" value="&lt;div&gt;工作内存&lt;/div&gt;&lt;div&gt;&lt;br&gt;&lt;/div&gt;&lt;div&gt;&lt;br&gt;&lt;/div&gt;" style="rounded=0;whiteSpace=wrap;html=1;" vertex="1" parent="mp_lwEm3eIpkVCGBcad2-21">
          <mxGeometry x="30" y="108" width="140" height="70" as="geometry" />
        </mxCell>
        <mxCell id="mp_lwEm3eIpkVCGBcad2-24" value="initFlag = false" style="rounded=0;whiteSpace=wrap;html=1;" vertex="1" parent="mp_lwEm3eIpkVCGBcad2-21">
          <mxGeometry x="40" y="138" width="120" height="30" as="geometry" />
        </mxCell>
        <mxCell id="mp_lwEm3eIpkVCGBcad2-25" value="CPU 核1" style="rounded=0;whiteSpace=wrap;html=1;" vertex="1" parent="WIyWlLk6GJQsqaUBKTNV-1">
          <mxGeometry x="540" y="94" width="200" height="40" as="geometry" />
        </mxCell>
        <mxCell id="mp_lwEm3eIpkVCGBcad2-38" value="2.load" style="edgeStyle=orthogonalEdgeStyle;rounded=0;orthogonalLoop=1;jettySize=auto;html=1;exitX=0.5;exitY=0;exitDx=0;exitDy=0;entryX=1;entryY=0.5;entryDx=0;entryDy=0;" edge="1" parent="WIyWlLk6GJQsqaUBKTNV-1" source="mp_lwEm3eIpkVCGBcad2-26" target="mp_lwEm3eIpkVCGBcad2-24">
          <mxGeometry relative="1" as="geometry" />
        </mxCell>
        <mxCell id="mp_lwEm3eIpkVCGBcad2-26" value="initFlag = false" style="rounded=0;whiteSpace=wrap;html=1;" vertex="1" parent="WIyWlLk6GJQsqaUBKTNV-1">
          <mxGeometry x="760" y="385" width="120" height="30" as="geometry" />
        </mxCell>
        <mxCell id="mp_lwEm3eIpkVCGBcad2-42" value="6.wirte" style="edgeStyle=orthogonalEdgeStyle;rounded=0;orthogonalLoop=1;jettySize=auto;html=1;exitX=0.5;exitY=1;exitDx=0;exitDy=0;entryX=0.5;entryY=0;entryDx=0;entryDy=0;" edge="1" parent="WIyWlLk6GJQsqaUBKTNV-1" source="mp_lwEm3eIpkVCGBcad2-27" target="mp_lwEm3eIpkVCGBcad2-9">
          <mxGeometry x="0.3333" y="10" relative="1" as="geometry">
            <mxPoint as="offset" />
          </mxGeometry>
        </mxCell>
        <mxCell id="mp_lwEm3eIpkVCGBcad2-27" value="initFlag = true" style="rounded=0;whiteSpace=wrap;html=1;" vertex="1" parent="WIyWlLk6GJQsqaUBKTNV-1">
          <mxGeometry x="410" y="320" width="120" height="30" as="geometry" />
        </mxCell>
        <mxCell id="mp_lwEm3eIpkVCGBcad2-41" value="5.store" style="edgeStyle=orthogonalEdgeStyle;rounded=0;orthogonalLoop=1;jettySize=auto;html=1;exitX=0;exitY=0.5;exitDx=0;exitDy=0;entryX=0.5;entryY=0;entryDx=0;entryDy=0;" edge="1" parent="WIyWlLk6GJQsqaUBKTNV-1" source="mp_lwEm3eIpkVCGBcad2-24" target="mp_lwEm3eIpkVCGBcad2-27">
          <mxGeometry relative="1" as="geometry" />
        </mxCell>
      </root>
    </mxGraphModel>
  </diagram>
</mxfile>
